<?xml version="1.0" encoding="UTF-8"?>
<svg id="Layer_2" data-name="Layer 2" xmlns="http://www.w3.org/2000/svg" viewBox="0 0 145.55 145.55">
  <defs>
    <style>
      .cls-1 {
        fill: #000;
      }

      .cls-1, .cls-2 {
        stroke-width: 0px;
      }

      .cls-2 {
        fill: #fff;
      }
    </style>
  </defs>
  <g id="Layer_1-2" data-name="Layer 1">
    <g>
      <circle class="cls-1" cx="72.78" cy="72.78" r="72.78"/>
      <path class="cls-2" d="M67.38,31.41v-5.49c-4.77-1.28-4.81-1.33-4.81-6.26q0-7.9,7.85-7.89c2.83,0,5.66-.05,8.49.02,2.86.08,3.91,1.16,4,3.98.04,1.41.01,2.83.01,4.25,0,4.59-.28,4.93-4.8,5.81v5.24c4.44,1.09,8.98,1.83,13.25,3.32,19.92,6.97,32.72,20.75,38.45,41.05,1.35,4.77.68,3.97,5.03,3.93,2.21-.02,3.21.66,3.14,3-.11,4.08-.09,8.16,0,12.24.05,2.13-.76,3.22-2.92,2.92-2.51-.34-3.94.46-5.25,2.87-2.56,4.73-7.05,6.61-12.34,6.61-10.16,0-20.32,0-30.48,0-19.41,0-38.81-.07-58.22.04-6.26.04-10.92-2.21-13.98-7.79-.39-.72-1.88-1.13-2.88-1.16-4.38-.15-4.38-.08-4.38-4.51,0-3.58.09-7.16-.01-10.74-.06-2.13.71-3.14,2.9-2.95.74.06,1.5-.05,2.25.02,1.33.12,1.89-.42,2.16-1.75,4.59-22.72,23.91-43.56,52.55-46.73ZM72.75,64.03c-11.57,0-23.15-.03-34.72.01-6.36.02-11.03,4.7-11.09,11.04-.04,4-.06,7.99.01,11.99.12,6.53,4.57,11.05,11.04,11.06,23.15.04,46.3.04,69.45,0,6.37-.01,10.89-4.42,11.11-10.77.14-4.08.14-8.16,0-12.24-.23-6.8-4.77-11.08-11.58-11.09-11.41-.01-22.82,0-34.22,0Z"/>
      <path class="cls-2" d="M59.36,81.24c.06,4.73-3.76,8.66-8.46,8.71-4.73.04-8.61-3.76-8.68-8.5-.07-4.73,3.72-8.61,8.47-8.67,4.78-.06,8.6,3.67,8.66,8.46Z"/>
      <path class="cls-2" d="M86.17,81.33c0-4.79,3.79-8.57,8.58-8.55,4.74.01,8.55,3.89,8.51,8.64-.05,4.59-3.88,8.44-8.47,8.5-4.67.06-8.62-3.87-8.62-8.59Z"/>
    </g>
  </g>
</svg>