<?xml version="1.0" encoding="UTF-8"?>
<svg id="Layer_2" xmlns="http://www.w3.org/2000/svg" viewBox="0 0 625.92 129.18">
  <defs>
    <style>
      .cls-1 {
        fill: #878787;
      }

      .cls-2 {
        fill: #494949;
      }
    </style>
  </defs>
  <g id="Layer_1-2" data-name="Layer_1">
    <g>
      <path class="cls-1" d="M434.67,98.25h-14.16c0-1.63,0-3.14,0-4.65,0-13.16.04-26.33-.03-39.49-.02-3.07.68-7.32-3.04-8.12-4.12-.89-8.71-.41-12.91.4-1.14.22-2.19,3.8-2.29,5.88-.3,6.26-.11,12.54-.11,19.15h-14.17c.43-9.19-1.33-18.48,1.5-27.52,1.86-5.93,6.16-10.09,12.17-11.78,8.06-2.26,16.06-2.23,23.76,1.88,1.24.66,3.45.39,4.83-.25,9.01-4.17,18.06-4.45,26.87.03,5.83,2.97,9.57,8.37,9.75,14.8.45,16.41.15,32.85.15,49.54h-13.95c0-1.58,0-3.1,0-4.61,0-13.16.03-26.33-.03-39.49-.02-3.08.6-7.32-3.13-8.08-4.13-.85-8.73-.39-12.89.53-1.19.26-2.2,4.11-2.23,6.33-.21,13.45-.11,26.9-.11,40.34,0,1.55,0,3.1,0,5.09Z"/>
      <path class="cls-1" d="M308.82,98.19v-22.28c4.07,0,8-.11,11.92.11.65.04,1.61,1.41,1.74,2.27.27,1.8.08,3.66.08,5.66,8.32,0,16.25.24,24.16-.11,3.36-.15,4.05-3.25,3.85-6.17-.23-3.42-1.93-5.75-5.6-5.81-7.43-.12-14.87-.08-22.3-.09-4.54,0-9.09,0-13.82,0V31.21c1.21-.14,2.29-.38,3.38-.38,8.72-.03,17.45-.09,26.17,0,15.88.18,25.23,13.64,20.18,28.69-.45,1.34.04,3.57.94,4.7,5.54,6.91,6.82,14.53,3.4,22.5-3.45,8.03-10.22,11.61-18.86,11.65-10.44.04-20.88.02-31.31,0-1.26,0-2.51-.12-3.92-.19ZM323.02,57.54c5.38,0,10.89.16,16.38-.05,4.93-.18,6.36-1.75,6.33-6.07-.03-4.47-1.7-6.11-6.65-6.4-2.13-.12-4.27-.07-6.4-.07q-10.77,0-10.09,10.78c.03.41.19.82.43,1.8Z"/>
      <path class="cls-1" d="M504.75,71.57h-14.3c.61-9.61-1.64-19.21,1.87-28.41,2.72-7.12,8.42-11.3,15.98-11.94,6.67-.57,13.46-.7,20.12-.13,10.5.9,18.05,9.35,18.26,19.87.18,9,.21,18.02,0,27.02-.28,12.19-8.67,20.3-20.77,20.4-5.43.04-10.87.14-16.3-.03-11.4-.35-20.65-11.44-18.47-22.26h13c1.88,7.96,2.4,8.39,10.79,8.37,4.14-.01,8.28-.08,12.41-.33,3.17-.19,5.01-2.04,5.03-5.28.06-9.43.1-18.86,0-28.29-.04-3.65-2.27-5.41-5.82-5.45-5.29-.05-10.57-.07-15.86,0-4.07.05-5.93,2.37-5.95,6.3-.03,6.56,0,13.12,0,20.15Z"/>
      <path class="cls-1" d="M229.5,76.05h12.48c.28.28.59.44.65.67,1.97,7.38,2.41,7.74,10.28,7.75,4,0,8.01,0,12-.17,3.91-.17,6.06-2.31,6.07-6.29.04-8.86.06-17.73-.01-26.59-.03-4.14-2.23-6.32-6.44-6.34-4.72-.02-9.44-.15-14.15-.03-5.54.14-7.18,1.67-7.35,7.21-.19,6.27-.04,12.55-.04,19.16h-13.37c0-8.49-.93-16.98.25-25.17,1.27-8.77,7.76-14.02,16.57-14.97,6.78-.73,13.74-.76,20.54-.16,10.12.9,17.51,8.69,17.88,18.75.37,10.13.37,20.31-.15,30.43-.52,10.33-8.93,17.85-19.33,18.06-5.72.11-11.44.14-17.16,0-11.48-.28-20.38-10.67-18.73-22.31Z"/>
      <path class="cls-1" d="M611.97,98.16c0-9.22,0-18.05,0-26.89,0-6.58.06-13.15-.07-19.73-.09-4.55-1.69-6.23-6.23-6.4-5-.19-10.01-.2-15-.02-4.82.17-6.26,1.65-6.46,6.64-.2,5-.07,10.01-.12,15.01-.01,1.54-.14,3.07-.23,5-4.07,0-7.77.17-11.44-.12-.89-.07-2.37-1.62-2.39-2.51-.14-6.71-.42-13.47.18-20.14.88-9.87,7.92-16.91,17.85-17.83,6.52-.6,13.16-.61,19.69-.1,9.28.72,17.31,7.39,17.74,16.4.8,16.78.23,33.63.23,50.69h-13.75Z"/>
      <path class="cls-1" d="M149.93,75.7c2.65,0,5.06.11,7.46-.03,3.65-.21,6.87-.36,6.9,4.9,0,1.15,2.4,3.19,3.79,3.27,6.25.37,12.55.43,18.8.11,4.14-.21,4.63-3.61,4.63-6.96,0-13.59.19-27.19-.08-40.78-.09-4.32,1.05-5.7,5.48-5.53,8.85.34,8.86.09,8.86,8.92,0,12.02.04,24.04-.01,36.06-.06,14.9-7.96,22.71-22.88,22.72-4.72,0-9.45.1-14.17-.03-11.39-.32-20.17-10.62-18.78-22.67Z"/>
      <path class="cls-1" d="M401.84,98.28h-13.46v-22.19h13.46v22.19Z"/>
      <path class="cls-1" d="M583.77,98.25h-13.49v-22.17h13.49v22.17Z"/>
      <g>
        <circle class="cls-1" cx="64.59" cy="64.59" r="64.59"/>
        <path class="cls-2" d="M59.8,27.87v-4.87c-4.24-1.14-4.27-1.18-4.27-5.56q0-7.01,6.97-7.01c2.51,0,5.03-.05,7.54.02,2.54.07,3.47,1.03,3.55,3.53.04,1.26.01,2.51.01,3.77,0,4.07-.25,4.38-4.26,5.15v4.65c3.94.97,7.97,1.62,11.76,2.95,17.68,6.19,29.04,18.41,34.12,36.43,1.19,4.23.6,3.52,4.46,3.49,1.96-.02,2.85.59,2.79,2.66-.1,3.62-.08,7.24,0,10.86.04,1.89-.67,2.86-2.59,2.6-2.22-.3-3.5.41-4.66,2.55-2.27,4.19-6.25,5.87-10.95,5.87-9.02,0-18.04,0-27.05,0-17.22,0-34.45-.06-51.67.04-5.56.03-9.7-1.96-12.41-6.92-.35-.64-1.67-1-2.55-1.03-3.89-.14-3.89-.07-3.89-4.01,0-3.18.08-6.36-.01-9.53-.05-1.89.63-2.79,2.57-2.62.66.06,1.33-.04,1.99.02,1.18.11,1.68-.37,1.92-1.56,4.07-20.17,21.22-38.66,46.64-41.48ZM64.57,56.83c-10.27,0-20.55-.02-30.82,0-5.65.02-9.79,4.17-9.84,9.8-.03,3.55-.05,7.1.01,10.64.1,5.79,4.06,9.81,9.8,9.82,20.55.04,41.09.04,61.64,0,5.65-.01,9.67-3.92,9.86-9.56.12-3.62.13-7.25,0-10.86-.21-6.04-4.23-9.83-10.27-9.84-10.12-.01-20.25,0-30.37,0Z"/>
        <path class="cls-2" d="M52.69,72.1c.06,4.2-3.33,7.69-7.51,7.73-4.2.04-7.64-3.34-7.7-7.54-.06-4.2,3.3-7.64,7.52-7.7,4.24-.06,7.63,3.26,7.69,7.51Z"/>
        <path class="cls-2" d="M76.48,72.19c0-4.25,3.36-7.6,7.61-7.59,4.21.01,7.59,3.45,7.55,7.67-.04,4.08-3.44,7.49-7.51,7.55-4.14.06-7.65-3.44-7.65-7.62Z"/>
      </g>
    </g>
  </g>
</svg>