<?xml version="1.0" encoding="UTF-8"?>
<svg id="Layer_2" xmlns="http://www.w3.org/2000/svg" viewBox="0 0 129.18 129.18">
  <defs>
    <style>
      .cls-1 {
        fill: #FFEBF7;
      }

      .cls-2 {
        fill: #FF52B7;
      }
    </style>
  </defs>
  <g id="Layer_2-2" data-name="Layer_2">
    <g id="Layer_1-2">
      <g>
        <circle class="cls-1" cx="64.59" cy="64.59" r="64.59"/>
        <path class="cls-2" d="M59.8,27.87v-4.87c-4.24-1.14-4.27-1.18-4.27-5.56,0-4.67,2.32-7.01,6.97-7.01,2.51,0,5.03-.05,7.54.02,2.54.07,3.47,1.03,3.55,3.53.04,1.26.01,2.51.01,3.77,0,4.07-.25,4.38-4.26,5.15v4.65c3.94.97,7.97,1.62,11.76,2.95,17.68,6.19,29.04,18.41,34.12,36.43,1.19,4.23.6,3.52,4.46,3.49,1.96-.02,2.85.59,2.79,2.66-.1,3.62-.08,7.24,0,10.86.04,1.89-.67,2.86-2.59,2.6-2.22-.3-3.5.41-4.66,2.55-2.27,4.19-6.25,5.87-10.95,5.87h-27.05c-17.22,0-34.45-.06-51.67.04-5.56.03-9.7-1.96-12.41-6.92-.35-.64-1.67-1-2.55-1.03-3.89-.14-3.89-.07-3.89-4.01,0-3.18.08-6.36-.01-9.53-.05-1.89.63-2.79,2.57-2.62.66.06,1.33-.04,1.99.02,1.18.11,1.68-.37,1.92-1.56,4.07-20.17,21.22-38.66,46.64-41.48h-.01ZM64.57,56.83c-10.27,0-20.55-.02-30.82,0-5.65.02-9.79,4.17-9.84,9.8-.03,3.55-.05,7.1.01,10.64.1,5.79,4.06,9.81,9.8,9.82,20.55.04,41.09.04,61.64,0,5.65-.01,9.67-3.92,9.86-9.56.12-3.62.13-7.25,0-10.86-.21-6.04-4.23-9.83-10.27-9.84-10.12,0-20.25,0-30.37,0h0Z"/>
        <path class="cls-2" d="M52.69,72.1c.06,4.2-3.33,7.69-7.51,7.73-4.2.04-7.64-3.34-7.7-7.54-.06-4.2,3.3-7.64,7.52-7.7,4.24-.06,7.63,3.26,7.69,7.51Z"/>
        <path class="cls-2" d="M76.48,72.19c0-4.25,3.36-7.6,7.61-7.59,4.21.01,7.59,3.45,7.55,7.67-.04,4.08-3.44,7.49-7.51,7.55-4.14.06-7.65-3.44-7.65-7.62h0Z"/>
      </g>
    </g>
  </g>
</svg>